<?xml version="1.0" standalone="no"?>
<!DOCTYPE svg PUBLIC "-//W3C//DTD SVG 20010904//EN"
 "http://www.w3.org/TR/2001/REC-SVG-20010904/DTD/svg10.dtd">
<svg version="1.0" xmlns="http://www.w3.org/2000/svg"
 width="931.000000pt" height="558.000000pt" viewBox="0 0 931.000000 558.000000"
 preserveAspectRatio="xMidYMid meet">
<metadata>
Created by potrace 1.14, written by Peter Selinger 2001-2017
</metadata>
<g transform="translate(0.000000,558.000000) scale(0.100000,-0.100000)"
fill="#000000" stroke="none">
<path d="M0 2790 l0 -2790 4655 0 4655 0 0 2790 0 2790 -4655 0 -4655 0 0
-2790z m9270 0 l0 -2750 -4615 0 -4615 0 0 2750 0 2750 4615 0 4615 0 0 -2750z"/>
<path d="M4346 5170 c-126 -22 -249 -118 -308 -237 -32 -65 -33 -73 -33 -183
0 -111 1 -118 33 -183 158 -321 615 -322 772 -3 30 60 35 81 38 161 5 114 -12
178 -69 264 -91 136 -268 210 -433 181z m166 -152 c50 -15 132 -87 161 -142
17 -33 22 -58 22 -126 0 -101 -18 -143 -88 -208 -58 -52 -105 -72 -175 -72
-81 0 -129 18 -188 73 -126 115 -126 299 0 415 30 27 69 53 87 59 47 15 134
15 181 1z"/>
<path d="M7016 5169 c-77 -12 -167 -62 -225 -124 -232 -246 -108 -644 223
-711 90 -19 177 -9 261 30 64 29 151 107 183 165 l23 41 -93 0 c-93 0 -95 -1
-124 -31 -93 -99 -270 -90 -365 19 -79 89 -98 220 -47 317 52 99 138 154 241
155 68 0 115 -18 173 -65 41 -34 45 -35 129 -35 l86 0 -23 41 c-29 51 -112
130 -167 159 -45 23 -159 50 -201 49 -14 -1 -47 -5 -74 -10z"/>
<path d="M330 4750 l0 -410 75 0 75 0 0 298 c1 236 3 294 13 281 7 -9 84 -143
172 -297 l160 -281 88 -1 87 0 0 410 0 410 -75 0 -75 0 -2 -297 -3 -298 -169
298 -170 297 -88 0 -88 0 0 -410z"/>
<path d="M1130 4750 l0 -410 225 0 225 0 0 70 0 70 -145 0 -145 0 0 100 0 100
135 0 135 0 0 70 0 70 -135 0 -135 0 0 100 0 100 145 0 145 0 0 70 0 70 -225
0 -225 0 0 -410z"/>
<path d="M1693 5140 c3 -11 56 -196 119 -410 l113 -390 61 0 62 0 62 253 c35
138 66 258 69 265 4 7 36 -107 72 -253 l64 -265 62 0 c50 0 63 3 67 18 140
480 226 783 226 791 0 7 -28 11 -75 11 l-74 0 -10 -37 c-6 -21 -35 -139 -66
-263 -30 -124 -59 -234 -63 -244 -9 -22 -5 -40 -92 327 l-52 218 -56 -3 -56
-3 -66 -265 c-37 -146 -69 -272 -71 -280 -3 -8 -37 111 -75 265 l-70 280 -78
3 c-75 3 -78 2 -73 -18z"/>
<path d="M3350 5154 c0 -3 59 -118 130 -255 l130 -249 0 -155 0 -155 80 0 80
0 0 154 0 154 134 256 134 256 -85 0 -84 0 -86 -180 c-48 -99 -89 -180 -93
-180 -4 0 -45 81 -93 180 l-86 180 -80 0 c-45 0 -81 -3 -81 -6z"/>
<path d="M4930 4751 l0 -411 75 0 75 0 0 150 c0 83 3 150 8 150 4 0 53 -68
110 -150 l103 -150 90 0 c49 0 89 2 89 5 0 3 -47 70 -104 147 -58 78 -103 145
-100 149 2 4 17 10 33 14 49 11 108 62 135 118 68 139 29 284 -96 352 -52 30
-55 30 -235 33 l-183 4 0 -411z m337 243 c15 -11 37 -38 47 -59 17 -35 18 -42
5 -79 -22 -63 -64 -86 -160 -86 l-79 0 0 118 c0 65 3 122 8 126 4 4 39 6 79 4
53 -2 80 -9 100 -24z"/>
<path d="M5570 4750 l0 -410 75 0 75 0 0 175 c0 96 3 175 8 175 4 -1 62 -79
130 -175 l122 -175 91 0 90 0 -20 28 c-11 15 -80 108 -154 207 l-135 180 32
42 c17 23 86 114 154 202 l123 161 -90 0 -90 0 -128 -177 -128 -178 -3 178 -2
177 -75 0 -75 0 0 -410z"/>
<path d="M7570 4750 l0 -410 75 0 75 0 0 410 0 410 -75 0 -75 0 0 -410z"/>
<path d="M7840 5090 l0 -70 75 0 75 0 0 -340 0 -340 75 0 75 0 2 338 3 337 78
3 77 3 0 69 0 70 -230 0 -230 0 0 -70z"/>
<path d="M8340 5153 c0 -4 59 -120 130 -257 l130 -248 0 -154 0 -154 80 0 80
0 0 155 0 155 130 248 c72 137 130 251 130 255 0 4 -37 7 -82 7 l-83 -1 -85
-180 c-46 -99 -87 -182 -90 -184 -3 -1 -43 79 -91 179 l-85 181 -82 3 c-45 2
-82 -1 -82 -5z"/>
<path d="M320 4080 l0 -70 4330 0 4330 0 0 70 0 70 -4330 0 -4330 0 0 -70z"/>
</g>
</svg>
