<?xml version="1.0" standalone="no"?>
<!DOCTYPE svg PUBLIC "-//W3C//DTD SVG 20010904//EN"
 "http://www.w3.org/TR/2001/REC-SVG-20010904/DTD/svg10.dtd">
<svg version="1.0" xmlns="http://www.w3.org/2000/svg"
 width="225.000000pt" height="225.000000pt" viewBox="0 0 225.000000 225.000000"
 preserveAspectRatio="xMidYMid meet">
<metadata>
Created by potrace 1.14, written by Peter Selinger 2001-2017
</metadata>
<g transform="translate(0.000000,225.000000) scale(0.100000,-0.100000)"
fill="#000000" stroke="none">
<path d="M945 2185 c-589 -110 -978 -657 -879 -1236 42 -243 147 -436 334
-611 290 -273 707 -359 1087 -223 304 109 545 351 651 656 105 300 71 633 -94
911 -67 114 -248 295 -362 362 -94 56 -228 109 -334 132 -103 23 -304 27 -403
9z m360 -29 c212 -37 400 -135 554 -288 126 -125 211 -264 264 -433 75 -237
58 -522 -44 -741 -124 -267 -373 -488 -643 -570 -192 -58 -430 -58 -622 0
-260 79 -512 296 -629 541 -71 149 -105 297 -105 460 0 506 358 935 860 1030
90 18 269 18 365 1z"/>
<path d="M992 1919 c-164 -27 -309 -104 -432 -228 -88 -88 -137 -161 -180
-264 l-24 -57 -100 -31 c-56 -16 -107 -32 -113 -34 -18 -6 -16 -19 6 -63 37
-73 54 -79 143 -57 l25 6 6 -103 c13 -219 93 -395 249 -544 244 -234 605 -289
912 -138 92 46 150 90 229 173 140 149 216 343 217 555 0 56 1 58 23 52 12 -3
41 -9 64 -12 41 -6 42 -6 73 42 35 56 35 84 0 95 -14 4 -64 19 -111 34 l-85
25 -24 58 c-43 102 -93 175 -180 262 -90 91 -164 140 -276 185 -123 49 -287
66 -422 44z m138 -131 c0 -7 20 -31 45 -54 52 -47 59 -84 24 -128 -25 -32 -39
-34 -31 -4 4 17 2 20 -11 15 -14 -5 -17 0 -17 24 l0 31 -25 -30 c-14 -17 -25
-37 -25 -46 0 -38 -47 3 -51 44 -4 49 0 57 26 52 26 -5 29 0 25 51 -2 28 14
57 31 57 5 0 9 -5 9 -12z m-158 -240 c10 -11 22 -36 26 -56 5 -21 17 -66 26
-102 9 -36 20 -78 23 -93 l6 -29 -30 16 c-17 8 -51 38 -76 66 -38 42 -50 50
-81 50 -36 0 -36 1 -36 41 l0 41 -55 -4 c-30 -3 -52 -1 -49 3 7 12 130 79 162
89 35 10 63 3 84 -22z m454 -4 c28 -14 64 -36 80 -49 l29 -23 -55 1 -55 2 -3
-37 c-3 -36 -5 -38 -36 -38 -26 0 -41 -9 -68 -37 -43 -48 -96 -93 -110 -93
-11 0 -8 21 16 90 8 25 20 71 26 103 7 34 22 69 37 87 29 36 58 34 139 -6z
m-616 -108 c-36 -35 -491 -235 -565 -249 -38 -7 -47 -2 -74 43 -24 41 -27 70
-6 70 8 0 124 35 257 77 164 52 266 79 313 83 76 6 98 -1 75 -24z m1018 -58
c147 -44 271 -84 275 -88 10 -9 -26 -85 -45 -96 -33 -21 -130 10 -343 109
-303 139 -327 157 -214 157 48 0 118 -18 327 -82z m-964 2 l37 -5 -88 -52
c-185 -108 -334 -173 -398 -173 -24 0 -37 7 -50 26 -9 14 -15 27 -13 28 2 2
39 17 83 35 44 17 148 64 230 105 124 60 151 70 156 57 3 -9 22 -18 43 -21z
m728 -37 c62 -30 155 -73 208 -95 52 -22 97 -42 99 -44 2 -2 -4 -15 -13 -29
-19 -30 -49 -32 -123 -10 -58 17 -246 111 -342 170 l-65 40 38 3 c21 2 40 10
43 18 7 19 18 15 155 -53z m-648 -25 c-13 -21 -225 -171 -279 -197 -87 -43
-104 -43 -132 -2 l-23 34 69 29 c38 16 129 64 203 107 132 77 133 78 149 57
10 -12 15 -24 13 -28z m698 -118 c54 -25 98 -49 98 -53 0 -5 -9 -22 -21 -38
-17 -24 -25 -28 -47 -23 -52 13 -142 64 -239 138 -124 93 -127 96 -108 123 15
21 16 20 117 -41 57 -33 147 -81 200 -106z m-643 82 l33 -28 -53 -46 c-122
-102 -265 -188 -314 -188 -11 0 -28 12 -37 27 l-16 27 71 39 c67 36 250 167
262 187 9 15 17 12 54 -18z m387 -42 c85 -68 212 -150 233 -150 19 0 23 -21 7
-45 -9 -14 -25 -25 -35 -25 -36 0 -177 80 -274 156 l-99 76 34 29 c18 15 36
28 40 29 4 0 46 -31 94 -70z m-326 -49 l0 -59 -58 1 c-88 0 -145 -37 -163
-110 -9 -35 -16 -43 -42 -49 -25 -5 -34 -2 -49 16 -10 12 -18 25 -18 29 0 3
19 15 42 26 43 20 171 111 242 172 22 18 41 33 43 33 2 0 3 -27 3 -59z m219
-5 c70 -57 218 -156 232 -156 16 0 10 -26 -10 -44 -14 -13 -28 -16 -50 -11
-25 5 -31 12 -31 33 0 70 -74 125 -167 124 l-53 0 0 54 c0 30 3 54 6 54 4 0
37 -24 73 -54z m-194 -86 c8 -7 15 -20 15 -30 0 -32 -30 -45 -103 -46 -76 -1
-92 -12 -74 -51 14 -30 72 -64 179 -101 166 -59 221 -98 234 -167 7 -39 -24
-107 -59 -130 -20 -13 -27 -13 -60 2 -45 21 -46 28 -8 47 46 24 54 67 21 109
-14 18 -55 37 -146 68 -187 63 -242 112 -231 206 9 78 65 116 160 109 32 -2
64 -10 72 -16z m251 0 c74 -36 94 -120 45 -189 -11 -15 -44 -40 -73 -55 -51
-27 -54 -27 -90 -12 -48 20 -42 35 26 64 71 31 98 57 94 90 -3 27 -4 27 -69
24 -58 -3 -69 -1 -95 21 -25 22 -27 27 -14 42 33 39 111 46 176 15z m-297
-301 c28 -10 44 -39 21 -39 -20 0 -50 -45 -50 -75 0 -44 26 -64 112 -87 126
-34 168 -74 168 -160 0 -61 -21 -88 -70 -88 l-38 0 15 31 c35 71 -9 131 -108
144 -153 21 -224 175 -121 262 31 27 30 26 71 12z"/>
</g>
</svg>
